<?xml version="1.0" encoding="utf-8"?>
<svg version="1.1" xmlns:xlink="http://www.w3.org/1999/xlink" width="55px" height="55px" xmlns="http://www.w3.org/2000/svg">
  <g transform="matrix(1 0 0 1 -177 -476 )">
    <path d="M 204.5 476  C 219.9 476  232 488.1  232 503.5  C 232 518.9  219.9 531  204.5 531  C 189.1 531  177 518.9  177 503.5  C 177 488.1  189.1 476  204.5 476  Z " fill-rule="nonzero" fill="#ffffff" stroke="none" />
    <path d="M 204.5 476.5  C 219.62 476.5  231.5 488.38  231.5 503.5  C 231.5 518.62  219.62 530.5  204.5 530.5  C 189.38 530.5  177.5 518.62  177.5 503.5  C 177.5 488.38  189.38 476.5  204.5 476.5  Z " stroke-width="1" stroke="#b5b1b1" fill="none" />
  </g>
</svg>