<?xml version="1.0" encoding="utf-8"?>
<svg version="1.1" xmlns:xlink="http://www.w3.org/1999/xlink" width="24px" height="21px" xmlns="http://www.w3.org/2000/svg">
  <g transform="matrix(1 0 0 1 -409 -299 )">
    <path d="M 10.8028846153846 1.80168776371308  C 10.9855769230769 1.9887482419128  11.0769230769231 2.21026722925457  11 2.4662447257384  L 11 18.5337552742616  C 11.0769230769231 18.7897327707454  10.9855769230769 19.0112517580872  10.8028846153846 19.1983122362869  C 10.6201923076923 19.3853727144866  10.4038461538462 19.4789029535865  10.1538461538462 19.4789029535865  C 9.90384615384616 19.4789029535865  9.6875 19.3853727144866  9.50480769230769 19.1983122362869  L 4.70192307692308 14.2805907172996  L 0.923076923076923 14.2805907172996  C 0.673076923076923 14.2805907172996  0.456730769230769 14.1870604781997  0.274038461538462 14  C 0.0913461538461538 13.8129395218003  0 13.5914205344585  0 13.3354430379747  L 0 7.66455696202532  C 0 7.40857946554149  0.0913461538461538 7.18706047819972  0.274038461538462 7  C 0.456730769230769 6.81293952180028  0.673076923076923 6.71940928270042  0.923076923076923 6.71940928270042  L 4.70192307692308 6.71940928270042  L 9.50480769230769 1.80168776371308  C 9.6875 1.61462728551336  9.90384615384616 1.5210970464135  10.1538461538462 1.5210970464135  C 10.4038461538462 1.5210970464135  10.6201923076923 1.61462728551336  10.8028846153846 1.80168776371308  Z M 16.0024038461538 8.40295358649789  C 16.4110576923077 9.05274261603376  16.6153846153846 9.75175808720112  16.6153846153846 10.5  C 16.6153846153846 11.2482419127989  16.4110576923077 11.9447960618847  16.0024038461538 12.5896624472574  C 15.59375 13.2345288326301  15.0528846153846 13.6947960618847  14.3798076923077 13.9704641350211  C 14.2836538461539 14.0196905766526  14.1634615384615 14.0443037974684  14.0192307692308 14.0443037974684  C 13.7692307692308 14.0443037974684  13.5528846153846 13.9532348804501  13.3701923076923 13.7710970464135  C 13.1875 13.5889592123769  13.0961538461538 13.3649789029536  13.0961538461538 13.0991561181435  C 13.0961538461538 12.8924050632911  13.1538461538462 12.7176511954993  13.2692307692308 12.5748945147679  C 13.3846153846154 12.4321378340366  13.5240384615385 12.3090717299578  13.6875 12.2056962025316  C 13.8509615384615 12.1023206751055  14.0144230769231 11.989099859353  14.1778846153846 11.8660337552743  C 14.3413461538462 11.7429676511955  14.4807692307692 11.5657524613221  14.5961538461538 11.334388185654  C 14.7115384615385 11.1030239099859  14.7692307692308 10.8248945147679  14.7692307692308 10.5  C 14.7692307692308 10.1751054852321  14.7115384615385 9.89697609001406  14.5961538461538 9.66561181434599  C 14.4807692307692 9.43424753867792  14.3413461538462 9.2570323488045  14.1778846153846 9.13396624472574  C 14.0144230769231 9.01090014064698  13.8509615384615 8.89767932489452  13.6875 8.79430379746836  C 13.5240384615385 8.69092827004219  13.3846153846154 8.56786216596343  13.2692307692308 8.42510548523207  C 13.1538461538462 8.2823488045007  13.0961538461538 8.10759493670886  13.0961538461538 7.90084388185654  C 13.0961538461538 7.63502109704641  13.1875 7.41104078762307  13.3701923076923 7.2289029535865  C 13.5528846153846 7.04676511954993  13.7692307692308 6.95569620253164  14.0192307692308 6.95569620253164  C 14.1634615384615 6.95569620253164  14.2836538461539 6.9803094233474  14.3798076923077 7.0295358649789  C 15.0528846153846 7.29535864978903  15.59375 7.75316455696203  16.0024038461538 8.40295358649789  Z M 19.0817307692308 6.32805907172996  C 19.8990384615385 7.60302390998593  20.3076923076923 8.99367088607595  20.3076923076923 10.5  C 20.3076923076923 12.0063291139241  19.8990384615385 13.3969760900141  19.0817307692308 14.67194092827  C 18.2644230769231 15.946905766526  17.1826923076923 16.8748241912799  15.8365384615385 17.4556962025316  C 15.7115384615385 17.5049226441631  15.5913461538462 17.5295358649789  15.4759615384615 17.5295358649789  C 15.2163461538462 17.5295358649789  14.9951923076923 17.436005625879  14.8125 17.2489451476793  C 14.6298076923077 17.0618846694796  14.5384615384615 16.8403656821378  14.5384615384615 16.584388185654  C 14.5384615384615 16.2004219409283  14.7259615384615 15.9099859353024  15.1009615384615 15.7130801687764  C 15.6394230769231 15.4275668073136  16.0048076923077 15.210970464135  16.1971153846154 15.0632911392405  C 16.9086538461539 14.5316455696203  17.4639423076923 13.8646272855134  17.8629807692308 13.0622362869198  C 18.2620192307692 12.2598452883263  18.4615384615385 11.4057665260197  18.4615384615385 10.5  C 18.4615384615385 9.59423347398031  18.2620192307692 8.7401547116737  17.8629807692308 7.93776371308017  C 17.4639423076923 7.13537271448664  16.9086538461539 6.46835443037975  16.1971153846154 5.93670886075949  C 16.0048076923077 5.78902953586498  15.6394230769231 5.57243319268636  15.1009615384615 5.28691983122363  C 14.7259615384615 5.09001406469761  14.5384615384615 4.79957805907173  14.5384615384615 4.41561181434599  C 14.5384615384615 4.15963431786216  14.6298076923077 3.93811533052039  14.8125 3.75105485232068  C 14.9951923076923 3.56399437412096  15.2115384615385 3.4704641350211  15.4615384615385 3.4704641350211  C 15.5865384615385 3.4704641350211  15.7115384615385 3.49507735583685  15.8365384615385 3.54430379746836  C 17.1826923076923 4.12517580872011  18.2644230769231 5.05309423347398  19.0817307692308 6.32805907172996  Z M 22.1682692307692 4.26054852320675  C 23.3894230769231 6.15576652601969  24 8.23558368495077  24 10.5  C 24 12.7644163150492  23.3894230769231 14.8442334739803  22.1682692307692 16.7394514767932  C 20.9471153846154 18.6346694796062  19.3221153846154 20.0302390998594  17.2932692307692 20.9261603375527  C 17.1682692307692 20.9753867791842  17.0432692307692 21  16.9182692307692 21  C 16.6682692307692 21  16.4519230769231 20.9064697609001  16.2692307692308 20.7194092827004  C 16.0865384615385 20.5323488045007  15.9951923076923 20.3108298171589  15.9951923076923 20.0548523206751  C 15.9951923076923 19.7004219409283  16.1826923076923 19.4099859353024  16.5576923076923 19.1835443037975  C 16.625 19.1441631504923  16.7331730769231 19.0924753867792  16.8822115384615 19.0284810126582  C 17.03125 18.9644866385373  17.1394230769231 18.9127988748242  17.2067307692308 18.873417721519  C 17.6490384615385 18.6272855133615  18.0432692307692 18.3762306610408  18.3894230769231 18.120253164557  C 19.5721153846154 17.2243319268636  20.4951923076923 16.1068917018284  21.1586538461538 14.7679324894515  C 21.8221153846154 13.4289732770745  22.1538461538462 12.0063291139241  22.1538461538462 10.5  C 22.1538461538462 8.99367088607595  21.8221153846154 7.57102672292546  21.1586538461538 6.23206751054852  C 20.4951923076923 4.89310829817159  19.5721153846154 3.77566807313643  18.3894230769231 2.87974683544304  C 18.0432692307692 2.62376933895921  17.6490384615385 2.37271448663854  17.2067307692308 2.12658227848101  C 17.1394230769231 2.08720112517581  17.03125 2.03551336146273  16.8822115384615 1.97151898734177  C 16.7331730769231 1.90752461322081  16.625 1.85583684950773  16.5576923076923 1.81645569620253  C 16.1826923076923 1.59001406469761  15.9951923076923 1.29957805907173  15.9951923076923 0.945147679324895  C 15.9951923076923 0.689170182841066  16.0865384615385 0.467651195499295  16.2692307692308 0.280590717299578  C 16.4519230769231 0.0935302390998585  16.6682692307692 0  16.9182692307692 0  C 17.0432692307692 0  17.1682692307692 0.0246132208157511  17.2932692307692 0.073839662447258  C 19.3221153846154 0.969760900140644  20.9471153846154 2.36533052039381  22.1682692307692 4.26054852320675  Z " fill-rule="nonzero" fill="#797979" stroke="none" transform="matrix(1 0 0 1 409 299 )" />
  </g>
</svg>