<?xml version="1.0" encoding="utf-8"?>
<svg version="1.1" xmlns:xlink="http://www.w3.org/1999/xlink" width="11px" height="12px" xmlns="http://www.w3.org/2000/svg">
  <g transform="matrix(1 0 0 1 -518 -303 )">
    <path d="M 523.5 303  C 526.58 303  529 305.64  529 309  C 529 312.36  526.58 315  523.5 315  C 520.42 315  518 312.36  518 309  C 518 305.64  520.42 303  523.5 303  Z " fill-rule="nonzero" fill="#ffffff" stroke="none" />
    <path d="M 523.5 303.5  C 526.3 303.5  528.5 305.92  528.5 309  C 528.5 312.08  526.3 314.5  523.5 314.5  C 520.7 314.5  518.5 312.08  518.5 309  C 518.5 305.92  520.7 303.5  523.5 303.5  Z " stroke-width="1" stroke="#797979" fill="none" />
  </g>
</svg>