<?xml version="1.0" encoding="utf-8"?>
<svg version="1.1" xmlns:xlink="http://www.w3.org/1999/xlink" width="51px" height="51px" xmlns="http://www.w3.org/2000/svg">
  <g transform="matrix(1 0 0 1 -178 -472 )">
    <path d="M 203.5 472  C 217.78 472  229 483.22  229 497.5  C 229 511.78  217.78 523  203.5 523  C 189.22 523  178 511.78  178 497.5  C 178 483.22  189.22 472  203.5 472  Z " fill-rule="nonzero" fill="#ffffff" stroke="none" />
    <path d="M 203.5 472.5  C 217.5 472.5  228.5 483.5  228.5 497.5  C 228.5 511.5  217.5 522.5  203.5 522.5  C 189.5 522.5  178.5 511.5  178.5 497.5  C 178.5 483.5  189.5 472.5  203.5 472.5  Z " stroke-width="1" stroke="#797979" fill="none" />
  </g>
</svg>