<?xml version="1.0" encoding="utf-8"?>
<svg version="1.1" xmlns:xlink="http://www.w3.org/1999/xlink" width="41px" height="25px" xmlns="http://www.w3.org/2000/svg">
  <g transform="matrix(1 0 0 1 -301 -357 )">
    <path d="M 22.251708984375 16.376953125  C 22.792236328125 15.146484375  23.0625 13.8541666666667  23.0625 12.5  C 23.0625 11.1458333333333  22.792236328125 9.853515625  22.251708984375 8.623046875  C 21.711181640625 7.392578125  20.98046875 6.328125  20.0595703125 5.4296875  C 19.138671875 4.53125  18.047607421875 3.818359375  16.786376953125 3.291015625  C 15.525146484375 2.763671875  14.2005208333333 2.5  12.8125 2.5  C 11.4244791666667 2.5  10.099853515625 2.763671875  8.838623046875 3.291015625  C 7.577392578125 3.818359375  6.486328125 4.53125  5.5654296875 5.4296875  C 4.64453125 6.328125  3.913818359375 7.392578125  3.373291015625 8.623046875  C 2.832763671875 9.853515625  2.5625 11.1458333333333  2.5625 12.5  C 2.5625 13.8541666666667  2.832763671875 15.146484375  3.373291015625 16.376953125  C 3.913818359375 17.607421875  4.64453125 18.671875  5.5654296875 19.5703125  C 6.486328125 20.46875  7.577392578125 21.181640625  8.838623046875 21.708984375  C 10.099853515625 22.236328125  11.4244791666667 22.5  12.8125 22.5  C 14.2005208333333 22.5  15.525146484375 22.236328125  16.786376953125 21.708984375  C 18.047607421875 21.181640625  19.138671875 20.46875  20.0595703125 19.5703125  C 20.98046875 18.671875  21.711181640625 17.607421875  22.251708984375 16.376953125  Z M 37.626708984375 16.376953125  C 38.167236328125 15.146484375  38.4375 13.8541666666667  38.4375 12.5  C 38.4375 11.1458333333333  38.167236328125 9.853515625  37.626708984375 8.623046875  C 37.086181640625 7.392578125  36.35546875 6.328125  35.4345703125 5.4296875  C 34.513671875 4.53125  33.422607421875 3.818359375  32.161376953125 3.291015625  C 30.900146484375 2.763671875  29.5755208333333 2.5  28.1875 2.5  L 20.4599609375 2.5  C 22.0481770833333 3.671875  23.3060709635417 5.13020833333333  24.233642578125 6.875  C 25.1612141927083 8.61979166666666  25.625 10.4947916666667  25.625 12.5  C 25.625 14.5052083333333  25.1612141927083 16.3802083333333  24.233642578125 18.125  C 23.3060709635417 19.8697916666667  22.0481770833333 21.328125  20.4599609375 22.5  L 28.1875 22.5  C 29.5755208333333 22.5  30.900146484375 22.236328125  32.161376953125 21.708984375  C 33.422607421875 21.181640625  34.513671875 20.46875  35.4345703125 19.5703125  C 36.35546875 18.671875  37.086181640625 17.607421875  37.626708984375 16.376953125  Z M 39.97900390625 7.646484375  C 40.65966796875 9.189453125  41 10.8072916666667  41 12.5  C 41 14.1927083333333  40.65966796875 15.810546875  39.97900390625 17.353515625  C 39.29833984375 18.896484375  38.387451171875 20.224609375  37.246337890625 21.337890625  C 36.105224609375 22.451171875  34.743896484375 23.33984375  33.162353515625 24.00390625  C 31.580810546875 24.66796875  29.9225260416667 25  28.1875 25  L 12.8125 25  C 11.0774739583333 25  9.419189453125 24.66796875  7.837646484375 24.00390625  C 6.256103515625 23.33984375  4.894775390625 22.451171875  3.753662109375 21.337890625  C 2.612548828125 20.224609375  1.70166015625 18.896484375  1.02099609375 17.353515625  C 0.34033203125 15.810546875  0 14.1927083333333  0 12.5  C 0 10.8072916666667  0.34033203125 9.189453125  1.02099609375 7.646484375  C 1.70166015625 6.103515625  2.612548828125 4.775390625  3.753662109375 3.662109375  C 4.894775390625 2.548828125  6.256103515625 1.66015625  7.837646484375 0.996093749999999  C 9.419189453125 0.332031250000001  11.0774739583333 0  12.8125 0  L 28.1875 0  C 29.9225260416667 0  31.580810546875 0.332031250000001  33.162353515625 0.996093749999999  C 34.743896484375 1.66015625  36.105224609375 2.548828125  37.246337890625 3.662109375  C 38.387451171875 4.775390625  39.29833984375 6.103515625  39.97900390625 7.646484375  Z " fill-rule="nonzero" fill="#9e9e9e" stroke="none" transform="matrix(1 0 0 1 301 357 )" />
  </g>
</svg>