<?xml version="1.0" encoding="utf-8"?>
<svg version="1.1" xmlns:xlink="http://www.w3.org/1999/xlink" width="12px" height="18px" xmlns="http://www.w3.org/2000/svg">
  <g transform="matrix(1 0 0 1 -401 -111 )">
    <path d="M 12 2.5682382133995  C 12 2.76178660049628  11.9266409266409 2.92928039702233  11.7799227799228 3.07071960297767  L 5.62934362934363 9  L 11.7799227799228 14.9292803970223  C 11.9266409266409 15.0707196029777  12 15.2382133995037  12 15.4317617866005  C 12 15.6253101736973  11.9266409266409 15.7928039702233  11.7799227799228 15.9342431761787  L 9.85714285714286 17.787841191067  C 9.71042471042471 17.9292803970223  9.53667953667954 18  9.33590733590734 18  C 9.13513513513514 18  8.96138996138996 17.9292803970223  8.81467181467182 17.787841191067  L 0.22007722007722 9.50248138957816  C 0.0733590733590735 9.36104218362283  0 9.19354838709677  0 9  C 0 8.80645161290323  0.0733590733590735 8.63895781637717  0.22007722007722 8.49751861042184  L 8.81467181467182 0.212158808933002  C 8.96138996138996 0.0707196029776667  9.13513513513514 0  9.33590733590734 0  C 9.53667953667954 0  9.71042471042471 0.0707196029776667  9.85714285714286 0.212158808933002  L 11.7799227799228 2.06575682382134  C 11.9266409266409 2.20719602977667  12 2.37468982630273  12 2.5682382133995  Z " fill-rule="nonzero" fill="#989393" stroke="none" transform="matrix(1 0 0 1 401 111 )" />
  </g>
</svg>