<?xml version="1.0" encoding="utf-8"?>
<svg version="1.1" xmlns:xlink="http://www.w3.org/1999/xlink" width="33px" height="33px" xmlns="http://www.w3.org/2000/svg">
  <g transform="matrix(1 0 0 1 -300 -551 )">
    <path d="M 8.2177734375 2.212890625  C 10.7457682291667 0.73763020833333  13.5065104166667 0  16.5 0  C 19.4934895833333 0  22.2542317708333 0.73763020833333  24.7822265625 2.212890625  C 27.3102213541667 3.68815104166666  29.3118489583333 5.68977864583333  30.787109375 8.2177734375  C 32.2623697916667 10.7457682291667  33 13.5065104166667  33 16.5  C 33 19.4934895833333  32.2623697916667 22.2542317708333  30.787109375 24.7822265625  C 29.3118489583333 27.3102213541667  27.3102213541667 29.3118489583333  24.7822265625 30.787109375  C 22.2542317708333 32.2623697916667  19.4934895833333 33  16.5 33  C 13.5065104166667 33  10.7457682291667 32.2623697916667  8.2177734375 30.787109375  C 5.68977864583333 29.3118489583333  3.68815104166667 27.3102213541667  2.212890625 24.7822265625  C 0.737630208333333 22.2542317708333  0 19.4934895833333  0 16.5  C 0 13.5065104166667  0.737630208333333 10.7457682291667  2.212890625 8.2177734375  C 3.68815104166667 5.68977864583333  5.68977864583333 3.68815104166666  8.2177734375 2.212890625  Z M 23.310546875 10.935546875  C 23.0670572916667 10.8639322916667  22.7591145833333 10.9498697916667  22.38671875 11.193359375  C 22.3580729166667 11.2076822916667  22.2900390625 11.2757161458333  22.1826171875 11.3974609375  C 22.0751953125 11.5192057291667  21.978515625 11.5872395833333  21.892578125 11.6015625  C 21.9212239583333 11.6015625  21.9534505208333 11.5657552083333  21.9892578125 11.494140625  C 22.0250651041667 11.4225260416667  22.0608723958333 11.34375  22.0966796875 11.2578125  C 22.1324869791667 11.171875  22.1575520833333 11.1217447916667  22.171875 11.107421875  C 22.2578125 11.0071614583333  22.4153645833333 10.8997395833333  22.64453125 10.78515625  C 22.8450520833333 10.69921875  23.2174479166667 10.61328125  23.76171875 10.52734375  C 24.2486979166667 10.4127604166667  24.6139322916667 10.4915364583333  24.857421875 10.763671875  C 24.8287760416667 10.7350260416667  24.8968098958333 10.6419270833333  25.0615234375 10.484375  C 25.2262369791667 10.3268229166667  25.330078125 10.2408854166667  25.373046875 10.2265625  C 25.416015625 10.1979166666667  25.5234375 10.1656901041667  25.6953125 10.1298828125  C 25.8671875 10.0940755208333  25.974609375 10.0403645833333  26.017578125 9.96875  L 26.060546875 9.49609375  C 25.888671875 9.51041666666666  25.7633463541667 9.46028645833333  25.6845703125 9.345703125  C 25.6057942708333 9.23111979166666  25.5592447916667 9.08072916666666  25.544921875 8.89453125  C 25.544921875 8.92317708333333  25.501953125 8.98046875  25.416015625 9.06640625  C 25.416015625 8.96614583333333  25.3837890625 8.90885416666666  25.3193359375 8.89453125  C 25.2548828125 8.88020833333333  25.1725260416667 8.88736979166666  25.072265625 8.916015625  C 24.9720052083333 8.94466145833333  24.9075520833333 8.95182291666666  24.87890625 8.9375  C 24.7356770833333 8.89453125  24.6282552083333 8.8408203125  24.556640625 8.7763671875  C 24.4850260416667 8.7119140625  24.427734375 8.59375  24.384765625 8.421875  C 24.341796875 8.25  24.3131510416667 8.142578125  24.298828125 8.099609375  C 24.2701822916667 8.02799479166666  24.2021484375 7.94921875  24.0947265625 7.86328125  C 23.9873046875 7.77734375  23.9192708333333 7.70572916666666  23.890625 7.6484375  C 23.8763020833333 7.61979166666666  23.8583984375 7.58040364583333  23.8369140625 7.5302734375  C 23.8154296875 7.48014322916666  23.7939453125 7.43359375  23.7724609375 7.390625  C 23.7509765625 7.34765625  23.7223307291667 7.30826822916666  23.6865234375 7.2724609375  C 23.6507161458333 7.23665364583333  23.611328125 7.21875  23.568359375 7.21875  C 23.525390625 7.21875  23.4752604166667 7.25455729166666  23.41796875 7.326171875  C 23.3606770833333 7.39778645833333  23.3069661458333 7.46940104166666  23.2568359375 7.541015625  C 23.2067057291667 7.61263020833333  23.1744791666667 7.6484375  23.16015625 7.6484375  C 23.1171875 7.61979166666666  23.07421875 7.60904947916666  23.03125 7.6162109375  C 22.98828125 7.62337239583333  22.9560546875 7.63053385416666  22.9345703125 7.6376953125  C 22.9130859375 7.64485677083333  22.880859375 7.66634114583333  22.837890625 7.7021484375  C 22.794921875 7.73795572916666  22.7591145833333 7.76302083333333  22.73046875 7.77734375  C 22.6875 7.80598958333333  22.6266276041667 7.82747395833333  22.5478515625 7.841796875  C 22.4690755208333 7.85611979166666  22.408203125 7.87044270833333  22.365234375 7.884765625  C 22.580078125 7.81315104166666  22.5729166666667 7.734375  22.34375 7.6484375  C 22.2005208333333 7.59114583333333  22.0859375 7.56966145833333  22 7.583984375  C 22.12890625 7.52669270833333  22.1826171875 7.44075520833333  22.1611328125 7.326171875  C 22.1396484375 7.21158854166666  22.0787760416667 7.111328125  21.978515625 7.025390625  L 22.0859375 7.025390625  C 22.0716145833333 6.96809895833333  22.0107421875 6.9072265625  21.9033203125 6.8427734375  C 21.7958984375 6.7783203125  21.6705729166667 6.71744791666666  21.52734375 6.66015625  C 21.3841145833333 6.60286458333333  21.291015625 6.55989583333333  21.248046875 6.53125  C 21.1334635416667 6.45963541666666  20.8899739583333 6.3916015625  20.517578125 6.3271484375  C 20.1451822916667 6.2626953125  19.9088541666667 6.25911458333333  19.80859375 6.31640625  C 19.7369791666667 6.40234375  19.7047526041667 6.4775390625  19.7119140625 6.5419921875  C 19.7190755208333 6.6064453125  19.7477213541667 6.70670572916666  19.7978515625 6.8427734375  C 19.8479817708333 6.97884114583333  19.873046875 7.068359375  19.873046875 7.111328125  C 19.8873697916667 7.197265625  19.8479817708333 7.29036458333333  19.7548828125 7.390625  C 19.6617838541667 7.49088541666666  19.615234375 7.57682291666666  19.615234375 7.6484375  C 19.615234375 7.74869791666666  19.7154947916667 7.85970052083333  19.916015625 7.9814453125  C 20.1165364583333 8.10319010416666  20.1881510416667 8.25716145833333  20.130859375 8.443359375  C 20.087890625 8.55794270833333  19.9733072916667 8.67252604166666  19.787109375 8.787109375  C 19.6009114583333 8.90169270833333  19.486328125 8.98763020833333  19.443359375 9.044921875  C 19.3717447916667 9.15950520833333  19.3610026041667 9.2919921875  19.4111328125 9.4423828125  C 19.4612630208333 9.5927734375  19.5364583333333 9.7109375  19.63671875 9.796875  C 19.6653645833333 9.82552083333333  19.6761067708333 9.85416666666666  19.6689453125 9.8828125  C 19.6617838541667 9.91145833333333  19.63671875 9.94368489583333  19.59375 9.9794921875  C 19.55078125 10.0152994791667  19.5113932291667 10.0439453125  19.4755859375 10.0654296875  C 19.4397786458333 10.0869140625  19.3932291666667 10.1119791666667  19.3359375 10.140625  L 19.271484375 10.18359375  C 19.1139322916667 10.2552083333333  18.9671223958333 10.2122395833333  18.8310546875 10.0546875  C 18.6949869791667 9.89713541666666  18.5983072916667 9.7109375  18.541015625 9.49609375  C 18.4407552083333 9.13802083333333  18.326171875 8.92317708333333  18.197265625 8.8515625  C 17.8678385416667 8.73697916666666  17.66015625 8.744140625  17.57421875 8.873046875  C 17.5026041666667 8.68684895833333  17.208984375 8.50065104166666  16.693359375 8.314453125  C 16.3352864583333 8.185546875  15.919921875 8.15690104166666  15.447265625 8.228515625  C 15.533203125 8.21419270833333  15.533203125 8.10677083333333  15.447265625 7.90625  C 15.3470052083333 7.69140625  15.2109375 7.60546875  15.0390625 7.6484375  C 15.08203125 7.5625  15.1106770833333 7.43717447916666  15.125 7.2724609375  C 15.1393229166667 7.10774739583333  15.146484375 7.01106770833333  15.146484375 6.982421875  C 15.189453125 6.79622395833333  15.275390625 6.63151041666666  15.404296875 6.48828125  C 15.4186197916667 6.47395833333333  15.46875 6.4130859375  15.5546875 6.3056640625  C 15.640625 6.1982421875  15.7086588541667 6.1015625  15.7587890625 6.015625  C 15.8089192708333 5.9296875  15.8125 5.88671875  15.76953125 5.88671875  C 16.2708333333333 5.94401041666666  16.62890625 5.865234375  16.84375 5.650390625  C 16.9153645833333 5.57877604166666  16.9977213541667 5.45703125  17.0908203125 5.28515625  C 17.1839192708333 5.11328125  17.2591145833333 4.99153645833333  17.31640625 4.919921875  C 17.4453125 4.833984375  17.5455729166667 4.79459635416666  17.6171875 4.8017578125  C 17.6888020833333 4.80891927083333  17.7926432291667 4.84830729166666  17.9287109375 4.919921875  C 18.0647786458333 4.99153645833333  18.1686197916667 5.02734375  18.240234375 5.02734375  C 18.4407552083333 5.04166666666666  18.5517578125 4.962890625  18.5732421875 4.791015625  C 18.5947265625 4.619140625  18.541015625 4.47591145833333  18.412109375 4.361328125  C 18.583984375 4.37565104166666  18.60546875 4.25390625  18.4765625 3.99609375  C 18.4192708333333 3.89583333333333  18.3619791666667 3.83138020833333  18.3046875 3.802734375  C 18.1328125 3.74544270833333  17.939453125 3.78125  17.724609375 3.91015625  C 17.6100260416667 3.96744791666666  17.6243489583333 4.02473958333333  17.767578125 4.08203125  C 17.7532552083333 4.06770833333333  17.6852213541667 4.14290364583333  17.5634765625 4.3076171875  C 17.4417317708333 4.47233072916666  17.3235677083333 4.59765625  17.208984375 4.68359375  C 17.0944010416667 4.76953125  16.9798177083333 4.73372395833333  16.865234375 4.576171875  C 16.8509114583333 4.56184895833333  16.8115234375 4.46516927083333  16.7470703125 4.2861328125  C 16.6826171875 4.10709635416666  16.6145833333333 4.01041666666666  16.54296875 3.99609375  C 16.4283854166667 3.99609375  16.3138020833333 4.103515625  16.19921875 4.318359375  C 16.2421875 4.20377604166666  16.1634114583333 4.09635416666666  15.962890625 3.99609375  C 15.7623697916667 3.89583333333333  15.5904947916667 3.83854166666666  15.447265625 3.82421875  C 15.7194010416667 3.65234375  15.662109375 3.458984375  15.275390625 3.244140625  C 15.1751302083333 3.18684895833333  15.0283203125 3.15104166666666  14.8349609375 3.13671875  C 14.6416015625 3.12239583333333  14.501953125 3.15104166666666  14.416015625 3.22265625  C 14.3444010416667 3.32291666666666  14.3050130208333 3.4052734375  14.2978515625 3.4697265625  C 14.2906901041667 3.5341796875  14.3264973958333 3.59147135416666  14.4052734375 3.6416015625  C 14.4840494791667 3.69173177083333  14.5592447916667 3.73111979166666  14.630859375 3.759765625  C 14.7024739583333 3.78841145833333  14.7848307291667 3.81705729166666  14.8779296875 3.845703125  C 14.9710286458333 3.87434895833333  15.0319010416667 3.89583333333333  15.060546875 3.91015625  C 15.2610677083333 4.05338541666666  15.318359375 4.15364583333333  15.232421875 4.2109375  C 15.2037760416667 4.22526041666666  15.1429036458333 4.25032552083333  15.0498046875 4.2861328125  C 14.9567057291667 4.32194010416666  14.8743489583333 4.35416666666666  14.802734375 4.3828125  C 14.7311197916667 4.41145833333333  14.6881510416667 4.44010416666666  14.673828125 4.46875  C 14.630859375 4.52604166666666  14.630859375 4.62630208333333  14.673828125 4.76953125  C 14.716796875 4.91276041666666  14.7024739583333 5.01302083333333  14.630859375 5.0703125  C 14.5592447916667 4.99869791666666  14.4947916666667 4.87337239583333  14.4375 4.6943359375  C 14.3802083333333 4.51529947916666  14.330078125 4.39713541666666  14.287109375 4.33984375  C 14.3873697916667 4.46875  14.2083333333333 4.51171875  13.75 4.46875  L 13.53515625 4.447265625  C 13.4778645833333 4.447265625  13.36328125 4.46158854166666  13.19140625 4.490234375  C 13.01953125 4.51888020833333  12.8727213541667 4.52604166666666  12.7509765625 4.51171875  C 12.6292317708333 4.49739583333333  12.5325520833333 4.44010416666666  12.4609375 4.33984375  C 12.4036458333333 4.22526041666666  12.4036458333333 4.08203125  12.4609375 3.91015625  C 12.4752604166667 3.85286458333333  12.50390625 3.83854166666666  12.546875 3.8671875  C 12.4895833333333 3.82421875  12.4108072916667 3.75618489583333  12.310546875 3.6630859375  C 12.2102864583333 3.56998697916666  12.138671875 3.50911458333333  12.095703125 3.48046875  C 11.4368489583333 3.6953125  10.763671875 3.98893229166666  10.076171875 4.361328125  C 10.162109375 4.37565104166666  10.248046875 4.36848958333333  10.333984375 4.33984375  C 10.4055989583333 4.31119791666666  10.4986979166667 4.2646484375  10.61328125 4.2001953125  C 10.7278645833333 4.1357421875  10.7994791666667 4.09635416666666  10.828125 4.08203125  C 11.3151041666667 3.88151041666666  11.6158854166667 3.83138020833333  11.73046875 3.931640625  L 11.837890625 3.82421875  C 12.0384114583333 4.05338541666666  12.181640625 4.232421875  12.267578125 4.361328125  C 12.1673177083333 4.30403645833333  11.9524739583333 4.296875  11.623046875 4.33984375  C 11.3365885416667 4.42578125  11.1790364583333 4.51171875  11.150390625 4.59765625  C 11.2506510416667 4.76953125  11.2864583333333 4.8984375  11.2578125 4.984375  C 11.2005208333333 4.94140625  11.1181640625 4.86979166666666  11.0107421875 4.76953125  C 10.9033203125 4.66927083333333  10.7994791666667 4.59049479166666  10.69921875 4.533203125  C 10.5989583333333 4.47591145833333  10.4915364583333 4.44010416666666  10.376953125 4.42578125  C 10.1477864583333 4.42578125  9.990234375 4.43294270833333  9.904296875 4.447265625  C 7.81315104166667 5.59309895833333  6.13020833333333 7.18294270833333  4.85546875 9.216796875  C 4.95572916666667 9.31705729166666  5.04166666666667 9.37434895833333  5.11328125 9.388671875  C 5.17057291666667 9.40299479166666  5.20638020833333 9.46744791666666  5.220703125 9.58203125  C 5.23502604166667 9.69661458333333  5.2529296875 9.775390625  5.2744140625 9.818359375  C 5.2958984375 9.861328125  5.37825520833333 9.83984375  5.521484375 9.75390625  C 5.650390625 9.86848958333333  5.671875 10.0045572916667  5.5859375 10.162109375  C 5.60026041666667 10.1477864583333  5.91536458333333 10.3411458333333  6.53125 10.7421875  C 6.80338541666667 10.9856770833333  6.95377604166667 11.1360677083333  6.982421875 11.193359375  C 7.025390625 11.3509114583333  6.95377604166667 11.4798177083333  6.767578125 11.580078125  C 6.75325520833333 11.5514322916667  6.68880208333333 11.4869791666667  6.57421875 11.38671875  C 6.45963541666667 11.2864583333333  6.39518229166667 11.2578125  6.380859375 11.30078125  C 6.337890625 11.3723958333333  6.34147135416667 11.5048828125  6.3916015625 11.6982421875  C 6.44173177083333 11.8916015625  6.51692708333333 11.9811197916667  6.6171875 11.966796875  C 6.51692708333333 11.966796875  6.44889322916667 12.0813802083333  6.4130859375 12.310546875  C 6.37727864583333 12.5397135416667  6.359375 12.7939453125  6.359375 13.0732421875  C 6.359375 13.3525390625  6.35221354166667 13.5208333333333  6.337890625 13.578125  L 6.380859375 13.599609375  C 6.337890625 13.771484375  6.37727864583333 14.0185546875  6.4990234375 14.3408203125  C 6.62076822916667 14.6630859375  6.77473958333333 14.802734375  6.9609375 14.759765625  C 6.77473958333333 14.802734375  6.91796875 15.1106770833333  7.390625 15.68359375  C 7.4765625 15.7981770833333  7.53385416666667 15.8626302083333  7.5625 15.876953125  C 7.60546875 15.9055989583333  7.69140625 15.9593098958333  7.8203125 16.0380859375  C 7.94921875 16.1168619791667  8.056640625 16.1884765625  8.142578125 16.2529296875  C 8.228515625 16.3173828125  8.30013020833333 16.392578125  8.357421875 16.478515625  C 8.41471354166667 16.5501302083333  8.486328125 16.7112630208333  8.572265625 16.9619140625  C 8.658203125 17.2125651041667  8.75846354166667 17.380859375  8.873046875 17.466796875  C 8.84440104166667 17.552734375  8.91243489583333 17.6959635416667  9.0771484375 17.896484375  C 9.24186197916667 18.0970052083333  9.31705729166667 18.26171875  9.302734375 18.390625  C 9.28841145833333 18.390625  9.2705078125 18.3977864583333  9.2490234375 18.412109375  C 9.2275390625 18.4264322916667  9.20963541666667 18.43359375  9.1953125 18.43359375  C 9.23828125 18.5338541666667  9.34928385416667 18.6341145833333  9.5283203125 18.734375  C 9.70735677083333 18.8346354166667  9.818359375 18.927734375  9.861328125 19.013671875  C 9.87565104166667 19.056640625  9.88997395833333 19.1282552083333  9.904296875 19.228515625  C 9.91861979166667 19.3287760416667  9.94010416666667 19.4075520833333  9.96875 19.46484375  C 9.99739583333333 19.5221354166667  10.0546875 19.5364583333333  10.140625 19.5078125  C 10.1692708333333 19.2213541666667  9.99739583333333 18.77734375  9.625 18.17578125  C 9.41015625 17.8177083333333  9.28841145833333 17.6100260416667  9.259765625 17.552734375  C 9.216796875 17.4811197916667  9.17740885416667 17.3701171875  9.1416015625 17.2197265625  C 9.10579427083333 17.0693359375  9.07356770833333 16.9654947916667  9.044921875 16.908203125  C 9.07356770833333 16.908203125  9.11653645833333 16.9189453125  9.173828125 16.9404296875  C 9.23111979166667 16.9619140625  9.2919921875 16.9869791666667  9.3564453125 17.015625  C 9.4208984375 17.0442708333333  9.474609375 17.0729166666667  9.517578125 17.1015625  C 9.560546875 17.1302083333333  9.57486979166667 17.1516927083333  9.560546875 17.166015625  C 9.517578125 17.2662760416667  9.53190104166667 17.3916015625  9.603515625 17.5419921875  C 9.67513020833333 17.6923828125  9.76106770833333 17.8248697916667  9.861328125 17.939453125  C 9.96158854166667 18.0540364583333  10.0833333333333 18.1901041666667  10.2265625 18.34765625  C 10.3697916666667 18.5052083333333  10.4557291666667 18.5983072916667  10.484375 18.626953125  C 10.5703125 18.712890625  10.6705729166667 18.8525390625  10.78515625 19.0458984375  C 10.8997395833333 19.2392578125  10.8997395833333 19.3359375  10.78515625 19.3359375  C 10.9140625 19.3359375  11.0572916666667 19.4111328125  11.21484375 19.5615234375  C 11.3723958333333 19.7119140625  11.494140625 19.8515625  11.580078125 19.98046875  C 11.6516927083333 20.0950520833333  11.708984375 20.28125  11.751953125 20.5390625  C 11.794921875 20.796875  11.8307291666667 20.96875  11.859375 21.0546875  C 11.8880208333333 21.1549479166667  11.9488932291667 21.2516276041667  12.0419921875 21.3447265625  C 12.1350911458333 21.4378255208333  12.224609375 21.505859375  12.310546875 21.548828125  L 12.654296875 21.720703125  C 12.654296875 21.720703125  12.7473958333333 21.7708333333333  12.93359375 21.87109375  C 13.0052083333333 21.8997395833333  13.1376953125 21.9749348958333  13.3310546875 22.0966796875  C 13.5244140625 22.2184244791667  13.6783854166667 22.30078125  13.79296875 22.34375  C 13.9361979166667 22.4010416666667  14.05078125 22.4296875  14.13671875 22.4296875  C 14.22265625 22.4296875  14.3264973958333 22.4117838541667  14.4482421875 22.3759765625  C 14.5699869791667 22.3401692708333  14.6666666666667 22.3151041666667  14.73828125 22.30078125  C 14.953125 22.2721354166667  15.1608072916667 22.3795572916667  15.361328125 22.623046875  C 15.5618489583333 22.8665364583333  15.7122395833333 23.0169270833333  15.8125 23.07421875  C 16.328125 23.3463541666667  16.7220052083333 23.4251302083333  16.994140625 23.310546875  C 16.9654947916667 23.3248697916667  16.9690755208333 23.3785807291667  17.0048828125 23.4716796875  C 17.0406901041667 23.5647786458333  17.0979817708333 23.67578125  17.1767578125 23.8046875  C 17.2555338541667 23.93359375  17.3199869791667 24.0374348958333  17.3701171875 24.1162109375  C 17.4202473958333 24.1949869791667  17.4596354166667 24.255859375  17.48828125 24.298828125  C 17.5598958333333 24.384765625  17.6888020833333 24.4921875  17.875 24.62109375  C 18.0611979166667 24.75  18.1901041666667 24.857421875  18.26171875 24.943359375  C 18.34765625 24.8860677083333  18.3977864583333 24.8216145833333  18.412109375 24.75  C 18.369140625 24.8645833333333  18.4192708333333 25.0078125  18.5625 25.1796875  C 18.7057291666667 25.3515625  18.8346354166667 25.4231770833333  18.94921875 25.39453125  C 19.1497395833333 25.3515625  19.25 25.1223958333333  19.25 24.70703125  C 18.8059895833333 24.921875  18.455078125 24.79296875  18.197265625 24.3203125  C 18.197265625 24.3059895833333  18.1793619791667 24.2666015625  18.1435546875 24.2021484375  C 18.1077473958333 24.1376953125  18.0791015625 24.0768229166667  18.0576171875 24.01953125  C 18.0361328125 23.9622395833333  18.0182291666667 23.9013671875  18.00390625 23.8369140625  C 17.9895833333333 23.7724609375  17.9895833333333 23.71875  18.00390625 23.67578125  C 18.0182291666667 23.6328125  18.0540364583333 23.611328125  18.111328125 23.611328125  C 18.240234375 23.611328125  18.3118489583333 23.5862630208333  18.326171875 23.5361328125  C 18.3404947916667 23.4860026041667  18.326171875 23.396484375  18.283203125 23.267578125  C 18.240234375 23.138671875  18.2115885416667 23.0455729166667  18.197265625 22.98828125  C 18.1829427083333 22.8736979166667  18.1041666666667 22.73046875  17.9609375 22.55859375  C 17.8177083333333 22.38671875  17.7317708333333 22.279296875  17.703125 22.236328125  C 17.6315104166667 22.365234375  17.5169270833333 22.4225260416667  17.359375 22.408203125  C 17.2018229166667 22.3938802083333  17.0872395833333 22.3294270833333  17.015625 22.21484375  C 17.015625 22.2291666666667  17.0048828125 22.2685546875  16.9833984375 22.3330078125  C 16.9619140625 22.3974609375  16.951171875 22.4440104166667  16.951171875 22.47265625  C 16.7649739583333 22.47265625  16.6575520833333 22.4654947916667  16.62890625 22.451171875  C 16.6432291666667 22.408203125  16.6611328125 22.2828776041667  16.6826171875 22.0751953125  C 16.7041015625 21.8675130208333  16.7291666666667 21.7063802083333  16.7578125 21.591796875  C 16.7721354166667 21.5345052083333  16.8115234375 21.4485677083333  16.8759765625 21.333984375  C 16.9404296875 21.2194010416667  16.994140625 21.1155598958333  17.037109375 21.0224609375  C 17.080078125 20.9293619791667  17.1087239583333 20.83984375  17.123046875 20.75390625  C 17.1373697916667 20.66796875  17.1051432291667 20.5999348958333  17.0263671875 20.5498046875  C 16.9475911458333 20.4996744791667  16.822265625 20.4817708333333  16.650390625 20.49609375  C 16.3782552083333 20.5104166666667  16.1920572916667 20.6536458333333  16.091796875 20.92578125  C 16.0774739583333 20.96875  16.0559895833333 21.0439453125  16.02734375 21.1513671875  C 15.9986979166667 21.2587890625  15.962890625 21.3411458333333  15.919921875 21.3984375  C 15.876953125 21.4557291666667  15.8125 21.505859375  15.7265625 21.548828125  C 15.6263020833333 21.591796875  15.4544270833333 21.6061197916667  15.2109375 21.591796875  C 14.9674479166667 21.5774739583333  14.7955729166667 21.5416666666667  14.6953125 21.484375  C 14.5091145833333 21.3697916666667  14.3479817708333 21.162109375  14.2119140625 20.861328125  C 14.0758463541667 20.560546875  14.0078125 20.2955729166667  14.0078125 20.06640625  C 14.0078125 19.9231770833333  14.0257161458333 19.7333984375  14.0615234375 19.4970703125  C 14.0973307291667 19.2607421875  14.1188151041667 19.0817057291667  14.1259765625 18.9599609375  C 14.1331380208333 18.8382161458333  14.09375 18.6627604166667  14.0078125 18.43359375  C 14.05078125 18.4049479166667  14.115234375 18.3369140625  14.201171875 18.2294921875  C 14.287109375 18.1220703125  14.3587239583333 18.046875  14.416015625 18.00390625  C 14.4446614583333 17.9895833333333  14.4768880208333 17.9788411458333  14.5126953125 17.9716796875  C 14.5485026041667 17.9645182291667  14.5807291666667 17.9645182291667  14.609375 17.9716796875  C 14.6380208333333 17.9788411458333  14.6666666666667 17.9680989583333  14.6953125 17.939453125  C 14.7239583333333 17.9108072916667  14.7454427083333 17.8678385416667  14.759765625 17.810546875  C 14.7454427083333 17.7962239583333  14.716796875 17.7747395833333  14.673828125 17.74609375  C 14.630859375 17.703125  14.6022135416667 17.681640625  14.587890625 17.681640625  C 14.6881510416667 17.724609375  14.8922526041667 17.7138671875  15.2001953125 17.6494140625  C 15.5081380208333 17.5849609375  15.705078125 17.595703125  15.791015625 17.681640625  C 16.005859375 17.8391927083333  16.1634114583333 17.8248697916667  16.263671875 17.638671875  C 16.263671875 17.6243489583333  16.2457682291667 17.5563151041667  16.2099609375 17.4345703125  C 16.1741536458333 17.3128255208333  16.1705729166667 17.2161458333333  16.19921875 17.14453125  C 16.2708333333333 17.53125  16.478515625 17.595703125  16.822265625 17.337890625  C 16.865234375 17.380859375  16.9762369791667 17.4166666666667  17.1552734375 17.4453125  C 17.3343098958333 17.4739583333333  17.4596354166667 17.509765625  17.53125 17.552734375  C 17.57421875 17.5813802083333  17.6243489583333 17.6207682291667  17.681640625 17.6708984375  C 17.7389322916667 17.7210286458333  17.7783203125 17.7532552083333  17.7998046875 17.767578125  C 17.8212890625 17.7819010416667  17.8570963541667 17.7783203125  17.9072265625 17.7568359375  C 17.9573567708333 17.7353515625  18.0182291666667 17.6888020833333  18.08984375 17.6171875  C 18.2330729166667 17.8177083333333  18.3190104166667 17.9895833333333  18.34765625 18.1328125  C 18.5052083333333 18.7057291666667  18.6412760416667 19.0208333333333  18.755859375 19.078125  C 18.8561197916667 19.12109375  18.9348958333333 19.1354166666667  18.9921875 19.12109375  C 19.0494791666667 19.1067708333333  19.0817057291667 19.0387369791667  19.0888671875 18.9169921875  C 19.0960286458333 18.7952473958333  19.0960286458333 18.6949869791667  19.0888671875 18.6162109375  C 19.0817057291667 18.5374348958333  19.0709635416667 18.4479166666667  19.056640625 18.34765625  L 19.03515625 18.17578125  L 19.03515625 17.7890625  L 19.013671875 17.6171875  C 18.798828125 17.57421875  18.6663411458333 17.48828125  18.6162109375 17.359375  C 18.5660807291667 17.23046875  18.5768229166667 17.0979817708333  18.6484375 16.9619140625  C 18.7200520833333 16.8258463541667  18.8274739583333 16.693359375  18.970703125 16.564453125  C 18.9850260416667 16.5501302083333  19.0423177083333 16.5250651041667  19.142578125 16.4892578125  C 19.2428385416667 16.4534505208333  19.3538411458333 16.4069010416667  19.4755859375 16.349609375  C 19.5973307291667 16.2923177083333  19.6868489583333 16.2350260416667  19.744140625 16.177734375  C 20.044921875 15.9055989583333  20.15234375 15.6549479166667  20.06640625 15.42578125  C 20.1666666666667 15.42578125  20.2454427083333 15.361328125  20.302734375 15.232421875  C 20.2884114583333 15.232421875  20.2526041666667 15.2109375  20.1953125 15.16796875  C 20.1380208333333 15.125  20.0843098958333 15.0891927083333  20.0341796875 15.060546875  C 19.9840494791667 15.0319010416667  19.9518229166667 15.017578125  19.9375 15.017578125  C 20.06640625 14.9459635416667  20.0807291666667 14.8313802083333  19.98046875 14.673828125  C 20.0520833333333 14.630859375  20.1057942708333 14.5520833333333  20.1416015625 14.4375  C 20.1774088541667 14.3229166666667  20.2311197916667 14.2513020833333  20.302734375 14.22265625  C 20.431640625 14.39453125  20.58203125 14.4088541666667  20.75390625 14.265625  C 20.8684895833333 14.1510416666667  20.8756510416667 14.0364583333333  20.775390625 13.921875  C 20.8470052083333 13.8216145833333  20.9938151041667 13.7464192708333  21.2158203125 13.6962890625  C 21.4378255208333 13.6461588541667  21.5703125 13.578125  21.61328125 13.4921875  C 21.7135416666667 13.5208333333333  21.7708333333333 13.5065104166667  21.78515625 13.44921875  C 21.7994791666667 13.3919270833333  21.806640625 13.3059895833333  21.806640625 13.19140625  C 21.806640625 13.0768229166667  21.828125 12.9908854166667  21.87109375 12.93359375  C 21.9283854166667 12.8619791666667  22.0358072916667 12.7975260416667  22.193359375 12.740234375  C 22.3509114583333 12.6829427083333  22.4440104166667 12.6471354166667  22.47265625 12.6328125  L 22.837890625 12.396484375  C 22.880859375 12.3391927083333  22.880859375 12.310546875  22.837890625 12.310546875  C 23.095703125 12.3391927083333  23.3177083333333 12.2604166666667  23.50390625 12.07421875  C 23.6471354166667 11.9166666666667  23.6041666666667 11.7734375  23.375 11.64453125  C 23.41796875 11.55859375  23.396484375 11.4905598958333  23.310546875 11.4404296875  C 23.224609375 11.3902994791667  23.1171875 11.3509114583333  22.98828125 11.322265625  C 23.03125 11.3079427083333  23.1136067708333 11.3043619791667  23.2353515625 11.3115234375  C 23.3570963541667 11.3186848958333  23.4322916666667 11.3079427083333  23.4609375 11.279296875  C 23.67578125 11.1360677083333  23.6256510416667 11.021484375  23.310546875 10.935546875  Z M 18.841796875 29.69140625  C 18.841796875 29.77734375  18.8561197916667 29.8919270833333  18.884765625 30.03515625  C 21.8352864583333 29.51953125  24.3489583333333 28.166015625  26.42578125 25.974609375  C 26.3828125 25.931640625  26.2932942708333 25.8994140625  26.1572265625 25.8779296875  C 26.0211588541667 25.8564453125  25.931640625 25.8313802083333  25.888671875 25.802734375  C 25.630859375 25.7024739583333  25.458984375 25.6451822916667  25.373046875 25.630859375  C 25.3873697916667 25.5305989583333  25.3694661458333 25.4375  25.3193359375 25.3515625  C 25.2692057291667 25.265625  25.2119140625 25.201171875  25.1474609375 25.158203125  C 25.0830078125 25.115234375  24.9934895833333 25.0579427083333  24.87890625 24.986328125  C 24.7643229166667 24.9147135416667  24.685546875 24.8645833333333  24.642578125 24.8359375  C 24.6139322916667 24.8072916666667  24.5638020833333 24.7643229166667  24.4921875 24.70703125  C 24.4205729166667 24.6497395833333  24.3704427083333 24.6103515625  24.341796875 24.5888671875  C 24.3131510416667 24.5673828125  24.2594401041667 24.53515625  24.1806640625 24.4921875  C 24.1018880208333 24.44921875  24.041015625 24.4348958333333  23.998046875 24.44921875  C 23.955078125 24.4635416666667  23.8834635416667 24.470703125  23.783203125 24.470703125  L 23.71875 24.4921875  C 23.67578125 24.5065104166667  23.6363932291667 24.5244140625  23.6005859375 24.5458984375  C 23.5647786458333 24.5673828125  23.525390625 24.5888671875  23.482421875 24.6103515625  C 23.439453125 24.6318359375  23.4108072916667 24.6533203125  23.396484375 24.6748046875  C 23.3821614583333 24.6962890625  23.3821614583333 24.7141927083333  23.396484375 24.728515625  C 23.095703125 24.4850260416667  22.837890625 24.3274739583333  22.623046875 24.255859375  C 22.5514322916667 24.2415364583333  22.47265625 24.2021484375  22.38671875 24.1376953125  C 22.30078125 24.0732421875  22.2255859375 24.0231119791667  22.1611328125 23.9873046875  C 22.0966796875 23.9514973958333  22.0250651041667 23.9407552083333  21.9462890625 23.955078125  C 21.8675130208333 23.9694010416667  21.78515625 24.01953125  21.69921875 24.10546875  C 21.6276041666667 24.1770833333333  21.5846354166667 24.2845052083333  21.5703125 24.427734375  C 21.5559895833333 24.5709635416667  21.5416666666667 24.6640625  21.52734375 24.70703125  C 21.4270833333333 24.6354166666667  21.4270833333333 24.5100911458333  21.52734375 24.3310546875  C 21.6276041666667 24.1520182291667  21.6419270833333 24.01953125  21.5703125 23.93359375  C 21.52734375 23.84765625  21.4521484375 23.8154296875  21.3447265625 23.8369140625  C 21.2373046875 23.8583984375  21.1513671875 23.890625  21.0869140625 23.93359375  C 21.0224609375 23.9765625  20.9401041666667 24.0374348958333  20.83984375 24.1162109375  C 20.7395833333333 24.1949869791667  20.6751302083333 24.2415364583333  20.646484375 24.255859375  C 20.6178385416667 24.2701822916667  20.5569661458333 24.3095703125  20.4638671875 24.3740234375  C 20.3707682291667 24.4384765625  20.3098958333333 24.4921875  20.28125 24.53515625  C 20.23828125 24.5924479166667  20.1953125 24.6783854166667  20.15234375 24.79296875  C 20.109375 24.9075520833333  20.0735677083333 24.986328125  20.044921875 25.029296875  C 20.0162760416667 24.9720052083333  19.9339192708333 24.9254557291667  19.7978515625 24.8896484375  C 19.6617838541667 24.8538411458333  19.59375 24.814453125  19.59375 24.771484375  C 19.6223958333333 24.9147135416667  19.6510416666667 25.1653645833333  19.6796875 25.5234375  C 19.7083333333333 25.8815104166667  19.744140625 26.1536458333333  19.787109375 26.33984375  C 19.8873697916667 26.7838541666667  19.8014322916667 27.1276041666667  19.529296875 27.37109375  C 19.142578125 27.7291666666667  18.9348958333333 28.015625  18.90625 28.23046875  C 18.8489583333333 28.5455729166667  18.9348958333333 28.7317708333333  19.1640625 28.7890625  C 19.1640625 28.8893229166667  19.1067708333333 29.0361328125  18.9921875 29.2294921875  C 18.8776041666667 29.4228515625  18.8274739583333 29.5768229166667  18.841796875 29.69140625  Z " fill-rule="nonzero" fill="#398bd8" stroke="none" transform="matrix(1 0 0 1 300 551 )" />
  </g>
</svg>